<svg width="15" height="17" viewBox="0 0 15 17" fill="none" xmlns="http://www.w3.org/2000/svg">
<path d="M13.2481 1.42857H14.1053C14.266 1.42857 14.391 1.30357 14.391 1.14286V0.571428C14.391 0.410714 14.266 0.285713 14.1053 0.285713H0.962411C0.801697 0.285713 0.676697 0.410714 0.676697 0.571428V1.14286C0.676697 1.30357 0.801697 1.42857 0.962411 1.42857H1.81955C1.81955 4.73214 3.39991 7.125 5.14991 8.28571C3.39991 9.44643 1.81955 11.8393 1.81955 15.1429H0.962411C0.801697 15.1429 0.676697 15.2679 0.676697 15.4286V16C0.676697 16.1607 0.801697 16.2857 0.962411 16.2857H14.1053C14.266 16.2857 14.391 16.1607 14.391 16V15.4286C14.391 15.2679 14.266 15.1429 14.1053 15.1429H13.2481C13.2481 11.8393 11.6678 9.44643 9.91777 8.28571C11.6678 7.125 13.2481 4.73214 13.2481 1.42857ZM12.1053 1.42857C12.1053 2.73214 11.8106 3.88393 11.3463 4.85714H3.72134C3.25705 3.88393 2.96241 2.73214 2.96241 1.42857H12.1053ZM11.5963 12.2857H3.47134C4.13205 10.5625 5.31955 9.33929 6.50705 8.85714H8.56063C9.74813 9.33929 10.9356 10.5625 11.5963 12.2857Z" fill="white"/>
</svg>
