<svg width="12" height="17" viewBox="0 0 12 17" fill="none" xmlns="http://www.w3.org/2000/svg">
<path d="M10.8859 9.59821L1.74308 0.455357C1.63594 0.339285 1.49308 0.285713 1.3413 0.285713C1.26987 0.285713 1.18951 0.303571 1.12701 0.330357C0.912724 0.419642 0.769867 0.624999 0.769867 0.857142V14.2857C0.769867 14.5179 0.912724 14.7232 1.12701 14.8125C1.18951 14.8393 1.26987 14.8571 1.3413 14.8571C1.49308 14.8571 1.63594 14.7946 1.74308 14.6875L4.5288 11.9018L6.23415 15.9375C6.35915 16.2232 6.68951 16.3661 6.98415 16.2411L8.56451 15.5714C8.85022 15.4464 8.99308 15.1161 8.86808 14.8214L7.07344 10.5714H10.4842C10.7163 10.5714 10.9217 10.4286 11.0109 10.2143C11.1002 10.0089 11.0556 9.75893 10.8859 9.59821Z" fill="white"/>
</svg>
